<?xml version="1.0" encoding="UTF-8" standalone="no"?>
<svg
   version="1.1"
   x="0px"
   y="0px"
   viewBox="0 0 1488 1488"
   xml:space="preserve"
   id="svg60"
   sodipodi:docname="jcarter-portfolio-icon.svg"
   width="1488"
   height="1488"
   inkscape:version="1.1.2 (0a00cf5339, 2022-02-04)"
   xmlns:inkscape="http://www.inkscape.org/namespaces/inkscape"
   xmlns:sodipodi="http://sodipodi.sourceforge.net/DTD/sodipodi-0.dtd"
   xmlns="http://www.w3.org/2000/svg"
   xmlns:svg="http://www.w3.org/2000/svg"><defs
     id="defs64" /><sodipodi:namedview
     id="namedview62"
     pagecolor="#ffffff"
     bordercolor="#666666"
     borderopacity="1.0"
     inkscape:pageshadow="2"
     inkscape:pageopacity="0.0"
     inkscape:pagecheckerboard="0"
     showgrid="false"
     inkscape:zoom="0.28085938"
     inkscape:cx="735.24339"
     inkscape:cy="1014.7427"
     inkscape:window-width="1856"
     inkscape:window-height="1025"
     inkscape:window-x="64"
     inkscape:window-y="27"
     inkscape:window-maximized="1"
     inkscape:current-layer="g54" /><g
     id="g54"
     transform="translate(-288,-264)"><g
       id="g4"
       style="fill:#006ea0;fill-opacity:1"><path
         d="M 1692.7,1752 H 371.3 c -45.9,0 -83.3,-37.4 -83.3,-83.3 V 803.8 c 0,-45.9 37.4,-83.3 83.3,-83.3 h 300.3 c 7.3,0 14.2,3.4 18.6,9.3 l 137.2,182.9 h 865.3 c 45.9,0 83.3,37.4 83.3,83.3 v 672.7 c 0,45.9 -37.4,83.3 -83.3,83.3 z M 371.3,767 c -20.3,0 -36.8,16.5 -36.8,36.8 v 864.9 c 0,20.3 16.5,36.8 36.8,36.8 h 1321.4 c 20.3,0 36.8,-16.5 36.8,-36.8 V 996 c 0,-20.3 -16.5,-36.8 -36.8,-36.8 H 815.8 c -7.3,0 -14.2,-3.4 -18.6,-9.3 L 660,767 Z"
         id="path2"
         style="fill:#006ea0;fill-opacity:1" /></g><g
       id="g8"
       style="fill:#006ea0;fill-opacity:1"><path
         d="m 1200.2,959.2 c -12.8,0 -23.2,-10.4 -23.2,-23.2 V 515.5 c 0,-20.3 -16.5,-36.8 -36.8,-36.8 H 539.5 c -20.3,0 -36.8,16.5 -36.8,36.8 v 228.2 c 0,12.8 -10.4,23.2 -23.2,23.2 -12.8,0 -23.2,-10.4 -23.2,-23.2 V 515.5 c 0,-45.9 37.4,-83.3 83.3,-83.3 h 600.6 c 45.9,0 83.3,37.4 83.3,83.3 v 420.4 c -0.1,12.9 -10.5,23.3 -23.3,23.3 z"
         id="path6"
         style="fill:#006ea0;fill-opacity:1" /></g><g
       id="g12"
       style="fill:#006ea0;fill-opacity:1"><path
         d="m 1584.6,959.2 c -12.8,0 -23.2,-10.4 -23.2,-23.2 V 347.3 c 0,-20.3 -16.5,-36.8 -36.8,-36.8 H 923.9 c -20.3,0 -36.8,16.5 -36.8,36.8 v 108.1 c 0,12.8 -10.4,23.2 -23.2,23.2 -12.8,0 -23.2,-10.4 -23.2,-23.2 V 347.3 c 0,-45.9 37.4,-83.3 83.3,-83.3 h 600.6 c 45.9,0 83.3,37.4 83.3,83.3 v 588.6 c -0.1,12.9 -10.5,23.3 -23.3,23.3 z"
         id="path10"
         style="fill:#006ea0;fill-opacity:1" /></g><g
       id="g16"
       style="fill:#006ea0;fill-opacity:1"><path
         d="M 839.8,574.8 H 551.5 c -12.8,0 -23.2,-10.4 -23.2,-23.2 0,-12.8 10.4,-23.2 23.2,-23.2 h 288.3 c 12.8,0 23.2,10.4 23.2,23.2 0,12.8 -10.4,23.2 -23.2,23.2 z"
         id="path14"
         style="fill:#006ea0;fill-opacity:1" /></g><g
       id="g20"
       style="fill:#006ea0;fill-opacity:1"><path
         d="M 839.8,670.9 H 551.5 c -12.8,0 -23.2,-10.4 -23.2,-23.2 0,-12.8 10.4,-23.2 23.2,-23.2 h 288.3 c 12.8,0 23.2,10.4 23.2,23.2 0,12.8 -10.4,23.2 -23.2,23.2 z"
         id="path18"
         style="fill:#006ea0;fill-opacity:1" /></g><g
       id="g24"
       style="fill:#006ea0;fill-opacity:1"><path
         d="M 1104.1,670.9 H 959.9 c -12.8,0 -23.2,-10.4 -23.2,-23.2 v -96.1 c 0,-12.8 10.4,-23.2 23.2,-23.2 h 144.2 c 12.8,0 23.2,10.4 23.2,23.2 v 96.1 c 0,12.8 -10.4,23.2 -23.2,23.2 z M 983.2,624.4 h 97.6 v -49.6 h -97.7 z"
         id="path22"
         style="fill:#006ea0;fill-opacity:1" /></g><g
       id="g28"
       style="fill:#006ea0;fill-opacity:1"><path
         d="M 1104.1,767 H 839.8 c -12.8,0 -23.2,-10.4 -23.2,-23.2 0,-12.8 10.4,-23.2 23.2,-23.2 h 264.3 c 12.8,0 23.2,10.4 23.2,23.2 0,12.8 -10.4,23.2 -23.2,23.2 z"
         id="path26"
         style="fill:#006ea0;fill-opacity:1" /></g><g
       id="g32"
       style="fill:#006ea0;fill-opacity:1"><path
         d="M 1104.1,863.1 H 887.8 c -12.8,0 -23.2,-10.4 -23.2,-23.2 0,-12.8 10.4,-23.2 23.2,-23.2 H 1104 c 12.8,0 23.2,10.4 23.2,23.2 0,12.8 -10.3,23.2 -23.1,23.2 z"
         id="path30"
         style="fill:#006ea0;fill-opacity:1" /></g><g
       id="g36"
       style="fill:#006ea0;fill-opacity:1"><path
         d="m 1488.5,767 h -192.2 c -12.8,0 -23.2,-10.4 -23.2,-23.2 V 383.4 c 0,-12.8 10.4,-23.2 23.2,-23.2 h 192.2 c 12.8,0 23.2,10.4 23.2,23.2 v 360.4 c 0,12.8 -10.4,23.2 -23.2,23.2 z m -169,-46.5 h 145.7 V 406.6 h -145.7 z"
         id="path34"
         style="fill:#006ea0;fill-opacity:1" /></g><g
       id="g40"
       style="fill:#006ea0;fill-opacity:1"><path
         d="m 1488.5,863.1 h -192.2 c -12.8,0 -23.2,-10.4 -23.2,-23.2 0,-12.8 10.4,-23.2 23.2,-23.2 h 192.2 c 12.8,0 23.2,10.4 23.2,23.2 0,12.8 -10.4,23.2 -23.2,23.2 z"
         id="path38"
         style="fill:#006ea0;fill-opacity:1" /></g><g
       id="g44"
       transform="translate(8,-8)"
       style="fill:#006ea0;fill-opacity:1"><path
         d="M 551.5,1655.9 H 407.4 c -12.8,0 -23.2,-10.4 -23.2,-23.2 v -96.1 c 0,-12.8 10.4,-23.2 23.2,-23.2 h 144.1 c 12.8,0 23.2,10.4 23.2,23.2 v 96.1 c 0.1,12.8 -10.4,23.2 -23.2,23.2 z m -120.9,-46.5 h 97.6 v -49.6 h -97.6 z"
         id="path42"
         style="fill:#006ea0;fill-opacity:1" /></g><g
       id="g48"
       transform="translate(-4,4)"
       style="fill:#006ea0;fill-opacity:1"><path
         d="m 1608.6,1103.3 h -456.5 c -12.8,0 -23.2,-10.4 -23.2,-23.2 0,-12.8 10.4,-23.2 23.2,-23.2 h 456.5 c 12.8,0 23.2,10.4 23.2,23.2 0,12.8 -10.4,23.2 -23.2,23.2 z"
         id="path46"
         style="fill:#006ea0;fill-opacity:1" /></g><g
       id="g52"
       transform="translate(-4,4)"
       style="fill:#006ea0;fill-opacity:1"><path
         d="m 1608.6,1199.4 h -456.5 c -12.8,0 -23.2,-10.4 -23.2,-23.2 0,-12.8 10.4,-23.2 23.2,-23.2 h 456.5 c 12.8,0 23.2,10.4 23.2,23.2 0,12.8 -10.4,23.2 -23.2,23.2 z"
         id="path50"
         style="fill:#006ea0;fill-opacity:1" /></g></g></svg>
